<?xml version="1.0" encoding="utf-8"?>
<!-- Generator: Adobe Illustrator 26.0.1, SVG Export Plug-In . SVG Version: 6.00 Build 0)  -->
<svg version="1.1" id="圖層_1" xmlns="http://www.w3.org/2000/svg" xmlns:xlink="http://www.w3.org/1999/xlink" x="0px" y="0px"
	 viewBox="0 0 512 512" style="enable-background:new 0 0 512 512;" xml:space="preserve">
<style type="text/css">
	.st0{fill:#E64437;}
	.st1{fill:#E0E0E0;}
	.st2{fill:#1F2020;}
	.st3{fill:#FFFFFF;}
</style>
<path class="st0" d="M230.94,512H10c-5.52,0-10-4.48-10-10V281.06c0-5.52,4.48-10,10-10h220.94c5.52,0,10,4.48,10,10V502
	C240.94,507.52,236.46,512,230.94,512z"/>
<path class="st1" d="M230.94,240.94H10c-5.52,0-10-4.48-10-10V10C0,4.48,4.48,0,10,0h220.94c5.52,0,10,4.48,10,10v220.94
	C240.94,236.46,236.46,240.94,230.94,240.94z"/>
<path class="st1" d="M502,240.94H281.06c-5.52,0-10-4.48-10-10V10c0-5.52,4.48-10,10-10H502c5.52,0,10,4.48,10,10v220.94
	C512,236.46,507.52,240.94,502,240.94z"/>
<path class="st1" d="M502,512H281.06c-5.52,0-10-4.48-10-10V281.06c0-5.52,4.48-10,10-10H502c5.52,0,10,4.48,10,10V502
	C512,507.52,507.52,512,502,512z"/>
<g>
	<path class="st2" d="M73.22,79.72h0.38l47.62-3.01h1.13l-4.52-25.41c-0.75-5.9-1.44-9.38-2.07-10.45
		c-0.63-1.07-1.63-2.29-3.01-3.67c-0.38-0.63-0.63-1-0.75-1.13c0.12-0.5,0.97-0.75,2.54-0.75c1.57,0,3.58,0.31,6.02,0.94
		c2.45,0.63,3.95,1.32,4.52,2.07c0.57,0.75,1.35,4.89,2.35,12.42c1.38,10.16,2.89,18.57,4.52,25.22h0.75l37.83-2.45
		c4.01-0.38,6.65-0.78,7.91-1.22c1.25-0.44,2.26-0.66,3.01-0.66c0.75,0,1.82,0.5,3.2,1.51c3.76,2.51,5.65,4.64,5.65,6.4
		c0,0.75-1.07,1.26-3.2,1.51l-52.14,3.39h-1.13l0.19,1.13c4.01,18.32,9.72,35.58,17.13,51.76l1.88,3.95v-4.14
		c0.38-0.63,1.66-2.48,3.86-5.55c2.19-3.07,4.61-7.25,7.25-12.52c4.26-7.4,6.4-12.86,6.4-16.38c0-1-0.06-1.76-0.19-2.26v-0.38
		c0-0.88,0.31-1.32,0.94-1.32c1,0,2.32,0.5,3.95,1.51c4.64,2.64,6.97,4.71,6.97,6.21c0,1.51-2.82,7.03-8.47,16.57
		c-5.65,9.54-11.23,17.82-16.75,24.85l-0.38,0.38l0.38,0.56c10.04,18.7,20.77,32.94,32.19,42.73c0.5,0.5,1.1,0.75,1.79,0.75
		c0.69,0,1.29-0.5,1.79-1.51c4.14-10.79,7.4-22.4,9.79-34.82c0.63-3.14,1.35-4.71,2.17-4.71c0.81,0,1.22,1.38,1.22,4.14v0.94
		c-0.25,14.68-1.63,28.3-4.14,40.85c-1.01,5.65-3.39,8.47-7.15,8.47c-4.89,0-9.1-1.63-12.61-4.89c-3.51-3.26-6.84-6.84-9.98-10.73
		c-8.66-11.29-16-22.21-22.02-32.75l-0.56-1.32c-8.41,10.04-18.7,19.58-30.87,28.61c-10.67,8.16-17.38,12.24-20.14,12.24h-0.56
		v-0.19c0-0.75,0.88-1.82,2.64-3.2c15.81-12.55,30.56-27.73,44.24-45.55l0.38-0.56l-0.38-0.38c-8.28-16.56-15.06-36.89-20.33-60.99
		l-0.19-0.75h-0.75l-50.64,3.2h-0.94v0.94c0,5.52-0.31,13.18-0.94,22.96v0.94h0.94l31.81-2.26h0.19c0.5-0.12,0.94-0.19,1.32-0.19
		h2.64c1.13,0,2.32,0.6,3.58,1.79c1.25,1.19,1.88,2.2,1.88,3.01c0,0.82-0.16,1.57-0.47,2.26c-0.31,0.69-0.56,2.29-0.75,4.8
		c-0.19,2.51-0.97,9.16-2.35,19.95c-2.39,18.95-5.71,30.37-9.98,34.26c-1.88,1.63-3.67,2.45-5.36,2.45s-3.74-1.25-6.12-3.76
		c-6.02-6.27-10.39-11.39-13.08-15.34c-2.7-3.95-4.05-6.18-4.05-6.68c0-0.5,0.12-0.75,0.38-0.75c0.75,0,3.01,1.44,6.78,4.33
		c3.76,2.89,8.28,5.96,13.55,9.22v0.19l0.38,0.19h0.56c1.13,0,2.04-1.13,2.73-3.39c0.69-2.26,1.85-7.31,3.48-15.15
		c1.63-7.84,2.82-17.16,3.58-27.95v-0.94h-0.94l-30.49,2.07h-0.94v0.94c-1.51,16.56-4.21,29.81-8.09,39.72
		c-6.53,16.69-13.55,29.49-21.08,38.4c-2.76,3.26-4.46,4.89-5.08,4.89c-0.63,0-0.94-0.31-0.94-0.94c0-0.63,0.38-1.69,1.13-3.2
		c13.93-23.59,21.96-49.63,24.09-78.12c0.88-11.92,1.32-21.65,1.32-29.18s-0.47-12.45-1.41-14.78c-0.94-2.32-1.41-3.79-1.41-4.42
		c0.12-0.12,0.66-0.19,1.6-0.19C61.27,74.45,65.57,76.21,73.22,79.72z M151.53,46.21c4.89,2.64,9.28,5.34,13.18,8.09
		c3.89,2.76,5.83,4.49,5.83,5.18c0,0.69-0.22,1.63-0.66,2.82c-0.44,1.19-1.04,2.26-1.79,3.2s-1.51,1.41-2.26,1.41
		c-0.75,0-3.23-1.79-7.43-5.36c-4.21-3.58-10.2-7.5-17.98-11.76c-1.38-0.88-2.07-1.66-2.07-2.35c0-0.69,0.38-1.79,1.13-3.29
		c0.5-1.25,1.41-1.88,2.73-1.88C143.53,42.26,146.64,43.58,151.53,46.21z M188.99,191.53h0.19H188.99z"/>
</g>
<g>
	<path class="st2" d="M359.15,70.4h0.19c1.13-0.25,2.38-0.5,3.76-0.75c1.38-0.25,2.51-0.56,3.39-0.94c0.88-0.38,1.66-0.56,2.35-0.56
		c0.69,0,1.66,0.38,2.92,1.13c3.76,2.39,5.65,4.52,5.65,6.4c0,1.01-0.94,1.63-2.82,1.88l-57.6,3.76h-0.19
		c-1.01,0.13-1.95,0.19-2.82,0.19h-2.45c-1.88,0-3.01-0.25-3.39-0.75h-0.19c-3.64-3.14-5.46-5.9-5.46-8.28v-0.19
		c0.63,0,1.47,0.16,2.54,0.47c1.06,0.31,2.73,0.47,4.99,0.47L359.15,70.4z M328.28,145.69h0.38l29.37-1.51h1.69
		c1.25,0,2.79,0.6,4.61,1.79c1.82,1.19,2.73,2.26,2.73,3.2s-0.16,1.67-0.47,2.17c-0.31,0.5-0.53,1.13-0.66,1.88l-3.01,25.98v0.38
		l0.19,0.38c2.76,3.89,4.14,6.21,4.14,6.97s-0.25,1.19-0.75,1.32c-1.01,0.12-2.14,0.25-3.39,0.38l-31.81,1.13h-0.94v0.94l0.19,2.45
		v0.57c0,2.13-0.82,3.2-2.45,3.2c-2.01,0-3.86-0.6-5.55-1.79c-1.69-1.19-2.54-2.61-2.54-4.24v-1.13c0.25-2.51,0.38-4.89,0.38-7.15
		v-2.26l-1.88-24.47c-0.38-4.52-1.19-7.81-2.45-9.88c-1.26-2.07-1.88-3.42-1.88-4.05c0.25-0.12,0.91-0.19,1.98-0.19
		C317.21,141.74,321.25,143.06,328.28,145.69z M315.29,95.62c2.51,0.63,5.08,0.94,7.72,0.94h2.07l25.6-1.69
		c2.38-0.25,4.3-0.59,5.74-1.04c1.44-0.44,2.42-0.66,2.92-0.66c0.5,0,1.32,0.38,2.45,1.13c3.26,2.26,4.89,4.27,4.89,6.02
		c0,1.13-1.07,1.82-3.2,2.07l-34.63,2.26h-0.19c-0.63,0.13-1.32,0.19-2.07,0.19h-1.88c-2.39,0-3.95-0.34-4.71-1.03
		c-0.75-0.69-1.73-1.94-2.92-3.76c-1.19-1.82-1.79-2.92-1.79-3.29V95.62z M315.29,119.15c2.51,0.63,5.14,0.94,7.91,0.94h2.07
		l25.03-1.32h0.19c2.88-0.38,4.89-0.78,6.02-1.22c1.13-0.44,1.98-0.66,2.54-0.66c0.56,0,1.88,0.79,3.95,2.35
		c2.07,1.57,3.11,3.23,3.11,4.99c0,1.01-1.01,1.63-3.01,1.88l-34.07,2.07h-5.46c-1.51-0.25-2.57-0.5-3.2-0.75
		c-2.14-1.88-3.76-4.39-4.9-7.53h-0.19C315.29,119.66,315.29,119.41,315.29,119.15z M355.76,52.89c2.26,1.38,3.39,2.64,3.39,3.76
		c0,1.13-0.56,2.61-1.69,4.42c-1.13,1.82-2.17,2.73-3.11,2.73c-0.94,0-3.76-1.63-8.47-4.89c-4.71-3.26-9.32-5.9-13.83-7.91
		c-4.52-2.01-7.15-3.26-7.91-3.76c-0.38-0.38-0.56-0.97-0.56-1.79c0-0.82,0.4-1.82,1.22-3.01c0.81-1.19,1.63-1.79,2.45-1.79
		c0.82,0,3.67,0.94,8.57,2.82C340.71,45.36,347.36,48.5,355.76,52.89z M326.97,48.94v-0.19V48.94z M355.01,152.85l-26.35,1.32h-0.94
		v0.94l1.88,25.41v0.94h0.94l22.4-0.57h0.94v-0.94l2.07-26.16v-0.94H355.01z M462.49,113.88l10.92-1.51c0.75,0,1.72,0.47,2.92,1.41
		c1.19,0.94,2.19,2.04,3.01,3.29c0.81,1.26,1.22,2.14,1.22,2.64c0,1.01-1.32,1.63-3.95,1.88l-95.44,4.52h-1.69
		c-4.52,0-7.53-2.07-9.03-6.21c-0.5-1.25-0.75-2.19-0.75-2.82c0.38,0,1.03,0.16,1.98,0.47c0.94,0.31,2.6,0.47,4.99,0.47l22.59-1.13
		H400l6.78-27.86l0.19-1.13h-1.13l-10.16,0.56h-0.19c-0.5,0.13-1.01,0.19-1.51,0.19h-1.69c-2.01,0-3.39-0.31-4.14-0.94
		c-2.14-1.38-3.76-3.95-4.9-7.72h-0.19v-0.38c3.39,0.5,5.83,0.75,7.34,0.75l4.33-0.19l13.55-0.75h0.75l4.9-20.52l0.19-1.13h-1.13
		l-21.27,1.32l-2.82,0.19c-4.64,0-7.84-2.82-9.6-8.47v-0.19h-0.19v-0.57l7.72,0.75h2.64L448,47.25c2.51-0.25,4.49-0.56,5.93-0.94
		c1.44-0.38,2.45-0.56,3.01-0.56c0.56,0,1.53,0.44,2.92,1.32c3.64,2.26,5.46,4.33,5.46,6.21c0,0.88-1.51,1.44-4.52,1.69l-35.95,2.07
		h-0.75l-4.71,20.52l-0.19,1.13h1.13l27.11-1.69l1.88-0.19c1.13,0,2.7,0.63,4.71,1.88c1.76,1.26,2.63,2.39,2.63,3.39
		c0,1.01-0.16,1.76-0.47,2.26c-0.31,0.5-0.53,1.13-0.66,1.88l-5.27,27.11l-0.19,1.13h1.13l11.1-0.57H462.49z M398.68,143.81h0.38
		l49.88-2.45h1.88c1.76,0,3.51,0.63,5.27,1.88c1.76,1.26,2.64,2.42,2.64,3.48c0,1.07-0.22,1.91-0.66,2.54
		c-0.44,0.63-0.72,1.38-0.85,2.26l-4.33,26.92v0.38l0.19,0.38c3.01,3.89,4.52,6.24,4.52,7.06c0,0.81-0.31,1.25-0.94,1.32
		c-0.63,0.06-1.69,0.16-3.2,0.28l-51.76,1.32h-0.94v0.94l0.56,6.59v0.57c0,2.01-0.75,3.01-2.26,3.01c-0.38,0-1.26-0.32-2.64-0.94
		c-4.27-1.38-6.4-3.14-6.4-5.27v-0.75c0-0.25,0.12-1.01,0.38-2.26c0.25-1.26,0.38-3.01,0.38-5.27l-0.19-4.14l-2.07-27.86
		c-0.25-4.39-0.79-7.59-1.6-9.6c-0.82-2.01-1.29-3.32-1.41-3.95c0.38-0.12,1.03-0.19,1.98-0.19
		C388.42,140.05,392.16,141.3,398.68,143.81z M445.74,149.84l-46.68,2.26h-0.94v0.94l1.88,26.92v0.94h0.94l41.41-1.13h0.75
		l3.58-28.8l0.19-1.13H445.74z M444.24,85.46l-26.54,1.69h-0.75l-6.59,28.05l-0.19,1.13h1.13l28.24-1.32h0.75l5.08-29.55H444.24z"/>
</g>
<g>
	<path class="st2" d="M319.62,466.64c0.75-6.02,1.13-11.42,1.13-16.19l0.57-126.68c0-2.89-0.44-5.21-1.32-6.97
		c-0.88-1.76-1.38-2.89-1.51-3.39c0.25-0.12,0.81-0.19,1.69-0.19c0.88,0,2.89,0.38,6.02,1.13c3.14,0.75,4.71,1.76,4.71,3.01
		l-0.38,151.91c0,2.89-0.75,4.33-2.26,4.33c-0.63,0-1.66-0.31-3.11-0.94c-1.44-0.63-2.73-1.51-3.86-2.64
		C320.19,468.89,319.62,467.76,319.62,466.64z M350.68,378.16c-0.88,0.13-1.76,0.19-2.64,0.19h-2.26c-4.89,0-8.03-1.76-9.41-5.27
		c-0.63-1.51-1.01-2.57-1.13-3.2c0.63,0,1.44,0.16,2.45,0.47c1,0.31,2.82,0.47,5.46,0.47h2.64l10.54-0.75h0.94v-0.94l0.19-15.43
		v-0.94h-0.94l-2.64,0.19h-0.19c-0.75,0.13-1.57,0.19-2.45,0.19h-2.26c-4.02,0-6.71-0.91-8.09-2.73c-1.38-1.82-2.07-3.04-2.07-3.67
		c0-0.63,0.06-1,0.19-1.13c0.63,0,1.44,0.16,2.45,0.47c1,0.32,2.82,0.47,5.46,0.47h2.45l7.34-0.56h0.94v-0.94l0.19-14.68v-0.94
		h-0.94l-7.72,0.56h-0.19c-0.75,0.13-1.51,0.19-2.26,0.19h-2.07c-2.89,0-5.08-0.66-6.59-1.98c-1.51-1.32-2.45-2.57-2.82-3.76
		c-0.38-1.19-0.63-1.98-0.75-2.35c0.63,0,1.51,0.16,2.64,0.47c1.13,0.32,3.01,0.47,5.65,0.47h2.26l25.22-1.88
		c3.51-0.25,6.08-0.63,7.72-1.13c1.63-0.5,2.73-0.75,3.29-0.75c0.57,0,1.41,0.38,2.54,1.13c3.51,2.26,5.27,4.14,5.27,5.65
		c0,0.63-0.75,1.01-2.26,1.13l-19.39,1.51h-0.94v0.94l-0.19,14.68v0.94h0.94c3.39-0.12,5.71-0.5,6.96-1.13
		c1.25-0.63,2.23-0.94,2.92-0.94c0.69,0,1.66,0.31,2.92,0.94c3.39,2.14,5.08,3.95,5.08,5.46c0,0.63-1.01,1.07-3.01,1.32L367.25,352
		h-0.94v0.94l-0.19,15.62v0.94h0.94l5.84-0.38c3.64-0.12,6.18-0.47,7.62-1.03c1.44-0.56,2.54-0.85,3.29-0.85
		c1.51,0,3.17,1.07,4.99,3.2c1.82,2.14,2.73,3.39,2.73,3.76c0,0.75-0.69,1.19-2.07,1.32l-38.59,2.64H350.68z M394.54,366.87
		c2.51,0.63,5.21,0.94,8.09,0.94h2.26l10.73-0.75h0.94v-0.94l0.19-16v-0.94h-0.94l-2.82,0.19c-2.76,0.25-5.08,0.38-6.96,0.38
		s-3.48-0.66-4.8-1.98c-1.32-1.32-2.23-2.67-2.73-4.05l-0.75-1.88c0.12,0,0.31,0,0.57,0c0.25,0,1.1,0.19,2.54,0.57
		c1.44,0.38,3.42,0.56,5.93,0.56h1.69l7.34-0.38h0.94v-0.94l0.19-14.87v-0.94H416l-7.72,0.57h-0.19c-0.75,0.13-1.51,0.19-2.26,0.19
		h-1.88c-5.02,0-8.22-1.76-9.6-5.27c-0.5-1.25-0.75-2.19-0.75-2.82c3.89,0.63,6.65,0.94,8.28,0.94h2.26l26.35-1.88
		c3.14-0.25,5.55-0.63,7.25-1.13c1.69-0.5,2.82-0.75,3.39-0.75c0.56,0,1.53,0.44,2.92,1.32h0.19c3.76,2.26,5.65,4.02,5.65,5.27
		c0,0.63-0.94,1.07-2.82,1.32l-20.52,1.51h-0.94v0.94l-0.19,14.87v0.94h1.88c3.39-0.12,5.84-0.44,7.34-0.94
		c1.51-0.5,2.6-0.75,3.29-0.75c0.69,0,2.1,0.72,4.24,2.16c2.13,1.44,3.2,2.67,3.2,3.67c0,0.75-0.75,1.26-2.26,1.51h-0.56
		l-16.19,0.94h-0.94v0.94l-0.19,16v0.94h0.94l6.97-0.56c3.14-0.12,5.55-0.47,7.25-1.03c1.69-0.57,2.92-0.85,3.67-0.85
		s1.82,0.47,3.2,1.41c1.38,0.94,2.51,1.98,3.39,3.11c0.88,1.13,1.32,1.88,1.32,2.26c0,0.88-0.75,1.38-2.26,1.51l-39.72,2.64
		c-3.26,0.25-5.77,0.38-7.53,0.38c-1.76,0-3.26-0.5-4.52-1.51c-1.26-1.13-2.14-2.42-2.64-3.86
		C394.79,368.35,394.54,367.37,394.54,366.87z M464.56,465.51c0,3.26-1.07,5.71-3.2,7.34c-2.14,1.63-3.83,2.45-5.08,2.45
		c-2.26,0-6.84-2.32-13.74-6.97c-10.54-7.15-18.95-13.74-25.22-19.76c-2.26-2.26-3.39-3.7-3.39-4.33c0-0.25,0.53-0.38,1.6-0.38
		c1.06,0,4.17,1.44,9.32,4.33c5.14,2.89,14.49,6.97,28.05,12.24l1.32,0.38v-1.32l0.38-140.61c0-3.39-0.56-5.9-1.69-7.53
		c-1.13-1.63-1.69-2.76-1.69-3.39c0.25-0.12,0.91-0.19,1.98-0.19c1.06,0,2.98,0.5,5.74,1.51c2.76,1.01,4.39,1.91,4.89,2.73
		c0.5,0.82,0.75,2.23,0.75,4.24l-0.38,141.74L464.56,465.51z"/>
</g>
<g>
	<path class="st3" d="M36.99,353.22c2.51,0.5,4.39,0.75,5.65,0.75h3.2c0.75,0,1.63-0.06,2.64-0.19l17.88-1.32h0.94v-0.94l0.19-30.87
		c0-4.01-1.07-7.65-3.2-10.92c-0.25-0.38-0.38-0.69-0.38-0.94c0-0.25,0.53-0.38,1.6-0.38c1.06,0,2.92,0.47,5.55,1.41
		c2.64,0.94,4.3,1.85,4.99,2.73c0.69,0.88,1.03,1.88,1.03,3.01l-0.19,35.2v0.94h0.94l4.14-0.38c2.64-0.25,4.58-0.69,5.84-1.32
		c1.25-0.63,2.19-0.94,2.82-0.94c0.62,0,1.63,0.5,3.01,1.51c3.76,2.51,5.65,4.52,5.65,6.02c0,1.01-1.19,1.63-3.58,1.88l-17.88,1.32
		h-0.94v0.94l-0.19,30.68v1.69l18.26-10.73c2.76-1.88,4.49-2.79,5.18-2.73c0.69,0.06,1.03,0.16,1.03,0.28
		c0,1.76-8.03,8.53-24.09,20.33l-0.38,0.19v0.57l-0.38,53.46l0.19,6.59c0,3.76-1.07,6.43-3.2,8c-2.14,1.57-3.92,2.35-5.37,2.35
		c-1.44,0-3.61-1.01-6.49-3.01c-6.28-4.52-11.61-9.79-16-15.81c-1.88-2.76-2.82-4.52-2.82-5.27v-0.56c1,0.25,3.32,1.57,6.96,3.95
		c3.64,2.39,8.91,5.08,15.81,8.09l1.32,0.38v-1.32l0.19-48.56v-1.88l-1.51,1.13c-11.8,8.03-19.08,12.05-21.83,12.05
		c-2.26,0-5.02-1.63-8.28-4.89c-1.13-1.25-1.69-2.19-1.69-2.82c0-0.38,0.5-0.63,1.51-0.75c1-0.12,3.1-0.69,6.31-1.69
		c3.2-1,11.58-5.02,25.13-12.05l0.57-0.19v-0.57l0.19-35.95v-0.94h-0.94l-14.12,1.13c-2.51,0.25-4.68,0.38-6.49,0.38
		c-1.82,0-3.04-0.31-3.67-0.94c-2.38-2.26-4.02-4.77-4.89-7.53h-0.19V353.22z M161.22,467.86l0.19-1.88
		c0.88-7.15,1.32-12.17,1.32-15.06l0.19-46.31v-0.94h-0.94l-26.16,1.32h-0.75l-0.19,0.75c-1.26,8.66-2.64,15.62-4.14,20.89
		c-1.51,5.27-4.14,10.92-7.91,16.94c-7.41,11.42-15.19,19.83-23.34,25.22c-3.26,2.26-5.18,3.39-5.74,3.39s-0.85-0.13-0.85-0.38
		c0-0.75,0.63-1.76,1.88-3.01c13.3-14.18,22.09-28.3,26.35-42.35c1.38-4.64,2.82-11.61,4.33-20.89h-1.13l-9.98,0.56
		c-3.76,0.38-6.4,0.57-7.91,0.57s-3.17-0.34-4.99-1.04c-1.82-0.69-3.55-3.23-5.18-7.62h-0.19v-0.94h0.19c0.62,0,1.66,0.16,3.1,0.47
		c1.44,0.31,3.61,0.47,6.49,0.47l19.39-1.13h0.94v-0.94c0.5-7.53,0.75-15.69,0.75-24.47v-9.03h-0.94l-4.9,0.38
		c-1.51,0.13-2.92,0.25-4.24,0.38c-1.32,0.13-2.45,0.19-3.39,0.19s-2.04-0.12-3.29-0.38c-3.01-0.5-5.21-3.07-6.59-7.72v-0.19h-0.19
		v-0.94h0.19c0.63,0,1.57,0.16,2.82,0.47c1.25,0.32,3.39,0.47,6.4,0.47l37.46-2.45h0.57l0.19-0.56
		c6.02-10.42,10.23-18.89,12.61-25.41c2.38-6.52,3.58-11.11,3.58-13.74v-0.19l-0.56-3.39c0-0.38,0.34-0.56,1.03-0.56
		c0.69,0,1.98,0.44,3.86,1.32c5.27,2.26,7.9,4.46,7.9,6.59c0,1.51-2.45,6.31-7.34,14.4c-4.9,8.09-8.97,14.53-12.24,19.29l-1.13,1.69
		l17.69-1.32c3.76-0.25,6.52-0.63,8.28-1.13c1.76-0.5,2.85-0.72,3.29-0.66c0.44,0.07,1.41,0.41,2.92,1.04
		c4.64,2.39,6.97,4.52,6.97,6.4c0,1.01-1.07,1.57-3.2,1.69l-20.9,1.32h-0.94v35.01h0.94l12.24-0.75c2.64-0.25,5.15-0.66,7.53-1.22
		c2.38-0.56,3.76-0.85,4.14-0.85c0.38,0,1.38,0.38,3.01,1.13c4.39,2.64,6.59,4.96,6.59,6.97c0,0.88-1.01,1.44-3.01,1.69l-30.49,1.51
		h-0.94v0.94l-0.19,66.82c0,2.64-0.82,3.95-2.45,3.95c-2.64,0-4.8-0.85-6.49-2.54C162.07,470.4,161.22,468.99,161.22,467.86z
		 M143.91,343.44c0,0.38-0.85,1.19-2.54,2.45c-1.69,1.26-3.2,1.88-4.52,1.88s-2.54-1.44-3.67-4.33c-3.64-8.66-7.91-16.38-12.8-23.15
		c-0.75-1-1.13-1.85-1.13-2.54c0-0.69,0.72-1.57,2.17-2.64c1.44-1.06,2.6-1.6,3.48-1.6c1.51,0,5.05,4.33,10.64,12.99
		C141.11,335.15,143.91,340.8,143.91,343.44z M162.17,360.19l-24.1,1.51h-0.94v0.94c-0.25,14.31-0.69,25.22-1.32,32.75v0.94h0.94
		l25.22-1.32h0.94v-0.94l0.19-32.94v-0.94H162.17z M200.56,392.75h0.19H200.56z"/>
</g>
</svg>
